<svg xmlns="http://www.w3.org/2000/svg" version="1.1" xmlns:xlink="http://www.w3.org/1999/xlink" width="1000" height="1000"><g clip-path="url(#SvgjsClipPath1291)"><rect width="1000" height="1000" fill="#ffffff"></rect><g transform="matrix(27.272727272727273,0,0,27.272727272727273,50,63.636363636363626)"><svg xmlns="http://www.w3.org/2000/svg" version="1.1" xmlns:xlink="http://www.w3.org/1999/xlink" width="33" height="32"><svg width="33" height="32" viewBox="0 0 33 32" fill="none" xmlns="http://www.w3.org/2000/svg">
<g clip-path="url(#clip0_1_10)">
<path d="M4.82054 18.2295C4.82054 18.2295 6.26645 23.4354 14.6575 24.8857C14.6575 24.8857 11.0693 27.6572 7.71312 26.8545C4.35689 26.0514 2.75558 23.4617 1.00023 20.1982C1.00023 20.1982 2.41971 18.9546 4.82054 18.2295ZM27.1789 18.2295C29.5803 18.9546 31.0002 20.1982 31.0002 20.1982C29.2449 23.4617 27.6436 26.0514 24.2873 26.8545C20.9311 27.6573 17.343 24.8857 17.343 24.8857C25.734 23.4354 27.1789 18.2295 27.1789 18.2295ZM4.51194 10.1748C4.53779 10.1768 7.23829 10.3903 10.553 12.2461H10.5539C10.5539 12.2461 9.15911 17.8413 14.8391 23.9541C14.8116 23.9522 3.11945 23.1356 4.51194 10.1748ZM27.4905 10.1748C28.8838 23.1508 17.1623 23.9541 17.1623 23.9541C22.8423 17.8413 21.4485 12.2461 21.4485 12.2461C24.7783 10.3815 27.4895 10.1748 27.4895 10.1748H27.4905ZM16.0002 4.00095C16.0002 4.00095 26.496 13.225 16.0002 23.7549C5.53198 13.2514 15.9466 4.04822 16.0002 4.00095Z" fill="#131313" style="fill:#131313;fill:color(display-p3 0.0738 0.0738 0.0738);fill-opacity:1;"></path>
</g>
<defs>
<clipPath id="clip0_1_10">
<rect width="30" height="23" fill="white" style="fill:white;fill-opacity:1;" transform="translate(1 4)"></rect>
</clipPath>
<clipPath id="SvgjsClipPath1291"><rect width="1000" height="1000" x="0" y="0" rx="200" ry="200"></rect></clipPath></defs>
</svg></svg></g></g></svg>