<svg width="55" height="43" viewBox="0 0 55 43" fill="none" xmlns="http://www.w3.org/2000/svg">
<path d="M18.5211 14.7643C19.2611 10.8997 21.3 7.13626 23.6503 4.01423C24.1613 3.33553 26.7778 0.133649 27.39 0.0378323C27.7892 -0.0260455 28.106 0.357222 28.3615 0.610071C30.781 3.03743 33.5119 7.01915 34.8933 10.1545C35.5508 11.6503 35.9713 13.2259 36.5303 14.7564C39.6258 13.1301 43.4188 11.6104 46.9189 11.1952C47.3874 11.1393 47.8213 10.9689 48.1646 11.3708C48.4441 11.7009 48.5266 12.864 48.5585 13.367C48.8087 17.402 48.3323 21.5088 46.9722 25.3068C48.0741 25.8365 49.2825 26.2437 50.4058 26.8C51.1617 27.1753 53.3017 28.3011 53.8128 28.8388C54.3238 29.3764 53.882 30.0791 53.6344 30.6593C52.1093 34.2178 48.649 38.8383 45.2421 40.736C39.2452 44.071 32.6921 41.3908 27.4751 37.8988C23.1791 40.6881 17.9435 43.2166 12.676 41.9284C7.78114 40.7307 4.08934 36.1474 1.88811 31.8543C1.60863 31.306 0.716957 29.7277 0.871336 29.2034C1.16679 28.192 6.74573 25.8099 7.88761 25.3122C7.44842 24.2662 7.137 23.1749 6.89213 22.0677C6.2267 19.0495 5.99513 15.664 6.31187 12.5845C6.51416 10.6362 7.08643 11.0674 8.71007 11.3469C10.9912 11.7381 13.3255 12.4807 15.4602 13.367C16.4982 13.7982 17.4911 14.3757 18.5211 14.759V14.7643ZM27.3767 0.559501C19.8866 8.09443 16.0591 17.9077 21.1083 28.0509C22.6495 31.1463 24.9199 34.3535 27.4725 36.6744C33.11 30.9281 37.2915 23.324 35.7584 15.0039C34.7789 9.69137 31.3186 4.1686 27.3767 0.559501ZM26.2295 37.0817C20.8901 31.2741 16.8842 23.7179 18.1964 15.5655C14.8879 13.383 10.906 12.0708 6.95867 11.7088C6.34115 18.9164 7.86099 27.1992 13.8099 31.8969C17.3393 34.6836 21.8323 36.2859 26.2295 37.0817ZM47.7467 11.7222C43.7967 12.0229 39.9932 13.4469 36.6181 15.451C37.7626 21.9985 35.3724 28.2532 31.5981 33.4805C30.7783 34.6144 29.8148 35.5965 28.9524 36.6824C28.8459 36.8155 28.6969 36.8528 28.7554 37.0817C34.4195 35.9478 40.1928 33.6402 43.8234 28.9639C47.5072 24.2183 48.311 17.5483 47.7441 11.7222H47.7467ZM8.14845 25.9243C6.58869 26.4008 5.05821 27.0555 3.63153 27.846C3.22695 28.0696 1.79761 28.8521 1.57137 29.1049C1.42497 29.2699 1.36641 29.3285 1.36641 29.5707C1.36641 29.93 2.31132 31.684 2.55088 32.1205C7.69862 41.5079 15.2126 44.1881 24.8587 38.8303C25.3271 38.5695 25.8302 38.3087 26.2295 37.944C18.8459 36.906 10.9858 33.2916 8.15111 25.9243H8.14845ZM28.6223 38.0106C33.983 41.2417 40.7864 43.339 46.3413 39.3174C48.9684 37.4144 52.4686 32.9482 53.504 29.8715C53.5652 29.6878 53.661 29.5441 53.5945 29.3338C53.3975 28.727 47.7787 26.0521 46.7752 25.935C44.2359 31.7825 38.9178 35.3862 32.905 37.0444L28.625 38.0106H28.6223Z" fill="black"/>
</svg>
